HIERARCHY
ROOT pelvis
{
  OFFSET 0 100 0
  CHANNELS 6 Xposition Yposition Zposition Zrotation Xrotation Yrotation
  JOINT pelvis_right_femur
  {
    OFFSET -10.78128 -3.44521 -0.5502486
    CHANNELS 3 Zrotation Xrotation Yrotation
    JOINT right_femur_tibia
    {
      OFFSET -0.8047443 -44.0398 -0.1307829
      CHANNELS 3 Zrotation Xrotation Yrotation
      JOINT right_tibia_foot
      {
        OFFSET 3.006224 -47.83518 -5
        CHANNELS 3 Zrotation Xrotation Yrotation
        End Site
        {
          OFFSET 0 -5 15
        }
      }
    }
  }
  JOINT pelvis_left_femur
  {
    OFFSET 10.78128 -3.44521 -0.5502486
    CHANNELS 3 Zrotation Xrotation Yrotation
    JOINT left_femur_tibia
    {
      OFFSET 0.8047443 -44.0398 -0.1307829
      CHANNELS 3 Zrotation Xrotation Yrotation
      JOINT left_tibia_foot
      {
        OFFSET -4.370144 -48.10324 -4.275266
        CHANNELS 3 Zrotation Xrotation Yrotation
        End Site
        {
          OFFSET 0 -5 15
        }
      }
    }
  }
  JOINT pelvis_spine1
  {
    OFFSET 0 6.468898 -3.129235
    CHANNELS 3 Zrotation Xrotation Yrotation
    JOINT spine1
    {
      OFFSET 0 23.15396 4.99043
      CHANNELS 3 Zrotation Xrotation Yrotation
      JOINT spine2
      {
        OFFSET 0 20.79997 -5.064912
        CHANNELS 3 Zrotation Xrotation Yrotation
        JOINT neck
        {
          OFFSET 0 14.38658 9.616178
          CHANNELS 3 Zrotation Xrotation Yrotation
          End Site
          {
            OFFSET 0 20 0
          }
        }
      }
      JOINT right_manubrium
      {
        OFFSET -5.722621 16.35077 3.967754
        CHANNELS 3 Zrotation Xrotation Yrotation
        JOINT right_clavicle
        {
          OFFSET -13.16364 1.694482 -4.693211
          CHANNELS 3 Zrotation Xrotation Yrotation
          JOINT right_humerus
          {
            OFFSET -28.5034 -0.3100689 -2.792744
            CHANNELS 3 Zrotation Xrotation Yrotation
            JOINT right_radius
            {
              OFFSET -25.15693 0.02248979 -1.271978
              CHANNELS 3 Zrotation Xrotation Yrotation
              End Site
              {
                OFFSET -15 0 0
              }
            }
          }
        }
      }
      JOINT left_manubrium
      {
        OFFSET 5.722621 16.35077 3.967754
        CHANNELS 3 Zrotation Xrotation Yrotation
        JOINT left_clavicle
        {
          OFFSET 13.16364 1.694482 -4.693211
          CHANNELS 3 Zrotation Xrotation Yrotation
          JOINT left_humerus
          {
            OFFSET 29.39168 -1.063119 -2.237045
            CHANNELS 3 Zrotation Xrotation Yrotation
            JOINT left_radius
            {
              OFFSET 24.59957 -0.9528479 0.9047498
              CHANNELS 3 Zrotation Xrotation Yrotation
              End Site
              {
                OFFSET 15 -0 -0
              }
            }
          }
        }
      }
    }
  }
}
MOTION
Frames: 17
Frame Time: 0.0416666666667
139.5482 99.95268 3108.862 -0.05897868 -2.461881 0.8897106 4.413789 -25.87797 0.729204 -0 8.019966 -0 -2.38578 4.357596 -5.343024 -4.570288 17.06617 -6.854647 -0 29.86823 -0 -5.323311 -16.03603 11.0498 -2.467051 -1.344895 2.728655 2.833117 10.01751 -8.671065 0.2375264 20.71123 9.668133 4.596755 -25.45703 9.975144 0.9406909 -17.65431 12.41033 92.65404 28.82303 -24.45454 -0 0 8.122682 -15.81971 9.10913 5.630748 9.240065 -24.64045 -2.471274 -85.15301 17.29297 8.181552 0 0 -29.64277 14.59929 9.550813 -8.738404
139.2941 100.4279 3116.163 -0.7673702 -2.047427 0.7121577 6.151365 -23.18741 2.642913 -0 10.39008 -0 -2.566515 3.41437 -5.309455 -3.761482 14.93897 -6.682276 -0 38.89454 -0 -6.724943 -12.15757 10.49305 -2.294996 -1.208944 2.924874 2.696501 10.32873 -8.709178 0.2431752 20.59446 9.488607 4.582325 -25.2915 9.705538 1.143536 -17.75601 12.43109 92.63419 29.10808 -24.2161 -0 0 8.506711 -16.40846 9.503542 6.268286 8.754289 -24.41833 -2.599381 -85.3676 17.56148 9.138229 0 0 -28.29294 13.58663 9.089704 -7.064241
139.0347 101.4871 3123.272 -1.285053 -2.072827 0.1638851 7.418562 -18.93748 4.510436 -0 12.54263 -0 -2.704387 1.421857 -5.326561 -2.953634 10.62249 -6.560614 -0 48.69278 -0 -7.68339 -8.178128 10.68834 -2.134206 -1.069273 3.159604 2.566085 10.62279 -8.688204 0.2581107 20.54253 9.28198 4.543505 -25.14758 9.454242 1.344819 -17.92377 12.49181 92.47778 29.41097 -23.76894 -0 0 9.057265 -16.87891 9.79648 6.813736 8.238243 -24.09928 -2.667189 -85.76108 17.78178 10.3067 0 0 -26.59926 12.77431 8.784372 -5.718498
138.807 102.8905 3129.857 -1.244604 -2.725376 -0.6505407 7.567706 -13.21825 5.482534 -0 13.19803 -0 -3.284797 -1.413091 -5.075261 -2.569465 4.128956 -6.64224 -0 57.24976 -0 -7.723758 -5.460611 11.76657 -1.996765 -0.9372558 3.442683 2.433516 10.89447 -8.602468 0.2799555 20.54949 9.039846 4.475394 -25.02148 9.210489 1.545122 -18.1638 12.57831 92.16978 29.74993 -23.10456 -0 0 9.776756 -17.26042 10.00217 7.299671 7.697005 -23.68666 -2.671313 -86.32792 17.97156 11.712 0 0 -24.57965 12.11472 8.630183 -4.622137
138.619 104.3152 3135.725 -0.5486295 -3.586632 -1.399347 6.494741 -6.824592 5.065712 -0 12.32764 -0 -4.670193 -4.857726 -4.046042 -2.714585 -3.75382 -7.000298 -0 61.55058 -0 -6.968833 -4.761661 13.09004 -1.890829 -0.8261126 3.796692 2.262463 11.15828 -8.430378 0.3116618 20.64064 8.725393 4.354476 -24.87189 8.942875 1.673831 -18.52528 12.67502 91.73802 30.04025 -22.1709 -0 0 10.70439 -17.6867 10.10465 7.777804 7.112718 -23.18738 -2.632 -87.06974 18.1285 13.41799 0 0 -22.16995 11.5289 8.653986 -3.695739
138.4257 105.411 3141.07 0.3391467 -4.246719 -1.936912 5.188993 -1.045393 4.300612 -0 10.85351 -0 -5.453478 -8.070566 -2.879965 -2.586822 -11.22292 -6.885647 -0 60.00346 -0 -6.304213 -5.319959 14.4089 -1.835894 -0.7592431 4.232152 2.025194 11.41017 -8.152921 0.3567246 20.8347 8.305869 4.147921 -24.66027 8.635118 1.644884 -19.0768 12.76664 91.20087 30.18228 -20.90458 -0 0 11.89248 -18.25339 10.06725 8.281706 6.495871 -22.60964 -2.560071 -87.96117 18.20375 15.458 0 0 -19.38585 11.01325 8.909965 -2.971964
138.2003 105.8277 3146.297 0.623948 -5.296684 -2.488831 4.837499 3.905417 4.058687 -0 9.526459 -0 -5.059661 -10.08129 -2.555572 -1.149025 -16.79807 -5.541979 -0 53.14658 -0 -5.935996 -5.763258 16.29139 -1.840072 -0.7661752 4.699763 1.765609 11.6012 -7.817515 0.4138976 21.08091 7.80033 3.845818 -24.4089 8.319879 1.475478 -19.80135 12.83408 90.5615 30.18127 -19.40674 -0 0 13.28634 -18.83542 9.908905 8.765232 5.930102 -21.99629 -2.438147 -88.88778 18.1396 17.65445 0 0 -16.54729 10.67731 9.412959 -2.577843
138.0441 105.4827 3151.609 0.1595564 -6.345067 -3.201324 5.306556 8.102903 3.488583 -0 8.470408 -0 -5.20014 -11.59991 -2.293531 1.088991 -20.78336 -3.686004 -0 42.37879 -0 -4.843214 -5.603168 17.89838 -1.879736 -0.8530816 5.142832 1.542548 11.7037 -7.502564 0.4772024 21.30397 7.251101 3.470656 -24.15126 8.024461 1.263929 -20.60644 12.86073 89.8375 30.10214 -17.87809 -0 0 14.76703 -19.2944 9.719644 9.186606 5.478196 -21.40102 -2.260954 -89.73267 17.9597 19.77002 0 0 -13.9674 10.53456 10.08065 -2.469671
138.0515 104.6353 3157.079 -0.5144984 -6.331303 -3.99179 5.733103 11.4589 2.770282 -0 8.120595 -0 -5.593992 -13.59569 -1.563869 2.912598 -23.95777 -2.388784 -0 31.15177 -0 -3.441477 -5.096248 18.45985 -1.933777 -0.9958337 5.530926 1.373778 11.72496 -7.249355 0.5341333 21.45899 6.721939 3.081173 -23.89945 7.757779 1.105063 -21.36954 12.83799 89.06746 30.01697 -16.48924 -0 0 16.1755 -19.62391 9.585433 9.562919 5.155576 -20.8739 -2.058181 -90.41745 17.7692 21.6043 0 0 -11.86863 10.45887 10.74549 -2.416852
138.2175 103.5374 3162.794 -1.003085 -5.546303 -4.741822 5.67637 14.21514 2.275981 -0 8.697738 -0 -5.461151 -15.56074 -0.7132188 3.766678 -26.12223 -1.939881 -0 22.05915 -0 -2.680092 -4.760499 18.44629 -1.987311 -1.142189 5.836205 1.250173 11.6994 -7.063672 0.5717525 21.54246 6.297624 2.757756 -23.67371 7.536022 1.020309 -21.97431 12.78196 88.37278 29.96063 -15.38323 -0 0 17.30407 -19.88433 9.528937 9.910921 4.945264 -20.47065 -1.890051 -90.88772 17.6501 22.98307 0 0 -10.4252 10.33448 11.23802 -2.246712
138.4761 102.3757 3168.841 -1.171572 -4.741318 -5.411067 5.064712 16.61961 1.877298 -0 10.25961 -0 -4.992389 -16.56086 0.002971539 3.515136 -26.93044 -2.352436 -0 15.97225 -0 -2.777662 -4.928817 18.46477 -2.026127 -1.248529 6.049273 1.159142 11.6704 -6.934347 0.5900717 21.58075 6.007391 2.532398 -23.49639 7.368882 0.9617834 -22.39776 12.72503 87.87254 29.9126 -14.59964 -0 0 18.07321 -20.11652 9.517938 10.21633 4.802663 -20.20251 -1.792624 -91.15906 17.58682 23.90146 0 0 -9.57382 10.16173 11.52058 -1.992155
138.7441 101.2995 3175.274 -1.0038 -4.430569 -5.990129 3.988007 18.71825 1.467803 -0 12.95383 -0 -4.604322 -15.85303 0.4857706 2.301895 -26.42388 -3.46343 -0 13.00479 -0 -3.464832 -5.656756 18.84885 -2.04015 -1.302576 6.171379 1.099651 11.66394 -6.858473 0.5979533 21.59879 5.833201 2.39295 -23.38432 7.261345 0.883432 -22.67102 12.69036 87.6256 29.83532 -14.13285 -0 0 18.51615 -20.30602 9.515091 10.43359 4.700159 -20.05336 -1.762038 -91.2806 17.5236 24.43545 0 0 -9.135303 10.02121 11.65611 -1.801426
138.9715 100.444 3182.088 -0.5648744 -4.744553 -6.442736 2.633409 20.3201 1.159247 -0 17.05882 -0 -4.472652 -13.05385 0.717953 0.5185579 -24.93362 -4.917394 -0 12.6697 -0 -4.151661 -6.700941 19.56248 -2.022197 -1.311252 6.202004 1.07871 11.6902 -6.844348 0.6051587 21.61227 5.748465 2.317081 -23.35012 7.219627 0.7588184 -22.82731 12.68927 87.65931 29.69298 -13.98986 -0 0 18.68602 -20.40949 9.493265 10.50174 4.636347 -20.01132 -1.779096 -91.29452 17.41098 24.64267 0 0 -8.958623 10.01144 11.73371 -1.83826
139.1686 99.95899 3189.213 0.03983455 -5.469778 -6.692155 1.225322 20.99734 1.208018 -0 22.85947 -0 -4.402254 -8.294782 0.6940751 -1.384885 -22.80689 -6.317966 -0 14.14551 -0 -4.252341 -7.664353 20.26402 -1.967995 -1.287202 6.136195 1.107349 11.74707 -6.904351 0.6192135 21.63054 5.737523 2.290771 -23.40293 7.253425 0.5834643 -22.87904 12.72698 87.97917 29.46413 -14.19282 -0 0 18.61547 -20.3706 9.43372 10.35493 4.629113 -20.0755 -1.82192 -91.2279 17.22038 24.53338 0 0 -8.963242 10.22363 11.83317 -2.246445
139.3927 99.99088 3196.502 0.6808501 -6.282099 -6.649231 0.02403478 20.20818 1.709297 -0 30.36641 -0 -4.074106 -2.303681 0.3486003 -3.076008 -20.14482 -7.406508 -0 16.47151 -0 -3.568091 -8.310804 20.53484 -1.876614 -1.240635 5.960468 1.201339 11.82011 -7.051261 0.6454361 21.66017 5.805146 2.315985 -23.55036 7.380667 0.3729282 -22.80713 12.80824 88.57351 29.14145 -14.77608 -0 0 18.30109 -20.11808 9.319037 9.919025 4.712303 -20.25602 -1.869328 -91.09011 16.94122 24.05161 0 0 -9.151636 10.74847 12.01287 -3.164217
139.6978 100.6146 3203.731 1.195447 -6.936136 -6.254701 -0.6815975 17.51035 2.382727 -0 38.88932 -0 -3.397825 3.612179 -0.3783865 -4.377282 -16.83368 -8.120778 -0 18.62283 -0 -2.414029 -8.770543 20.15852 -1.754355 -1.178113 5.653846 1.380278 11.87688 -7.290998 0.6868126 21.70596 5.977843 2.409547 -23.79571 7.628826 0.1610066 -22.56493 12.93697 89.39787 28.73049 -15.75942 -0 0 17.7123 -19.56734 9.127722 9.12152 4.932404 -20.56662 -1.900581 -90.87269 16.57863 23.07724 0 0 -9.62003 11.67595 12.30063 -4.724076
140.0905 101.7454 3210.649 1.430852 -7.345901 -5.514632 -0.7469164 12.829 2.76594 -0 46.82695 -0 -2.684141 7.993246 -1.378208 -5.235058 -12.80422 -8.547886 -0 19.69755 -0 -1.338553 -9.408272 19.30834 -1.622483 -1.10652 5.200845 1.658023 11.86119 -7.606687 0.7405748 21.76852 6.294885 2.592621 -24.12837 8.02434 -0.01085129 -22.10488 13.10717 90.34785 28.25296 -17.09196 -0 0 16.81859 -18.65309 8.836103 7.939167 5.335867 -21.01133 -1.900895 -90.54781 16.15808 21.47184 0 0 -10.57966 13.05274 12.67266 -6.984693
